G04*
G04 #@! TF.GenerationSoftware,Altium Limited,Altium Designer,24.1.2 (44)*
G04*
G04 Layer_Color=8388736*
%FSLAX44Y44*%
%MOMM*%
G71*
G04*
G04 #@! TF.SameCoordinates,D3952CD8-D2C5-4FB3-AAAE-883DB83010C7*
G04*
G04*
G04 #@! TF.FilePolarity,Positive*
G04*
G01*
G75*
%ADD11C,0.2540*%
%ADD30C,0.1524*%
D11*
X-65080Y15240D02*
X-60000Y0D01*
X-54920Y15240D01*
X-60000Y540000D02*
X-54920Y524760D01*
X-65080D02*
X-60000Y540000D01*
Y0D02*
Y193314D01*
Y338558D02*
Y540000D01*
X-62540Y0D02*
X0D01*
X-62540Y540000D02*
X16190D01*
X0Y-50000D02*
X15240Y-44920D01*
X0Y-50000D02*
X15240Y-55080D01*
X844760D02*
X860000Y-50000D01*
X844760Y-44920D02*
X860000Y-50000D01*
X0D02*
X353314D01*
X498558D02*
X860000D01*
X0Y-52540D02*
Y0D01*
X860000Y-52540D02*
Y16190D01*
D30*
X-66094Y207535D02*
Y197378D01*
X-58476D01*
X-61015Y202456D01*
Y204996D01*
X-58476Y207535D01*
X-53398D01*
X-50858Y204996D01*
Y199917D01*
X-53398Y197378D01*
X-50858Y220231D02*
X-66094D01*
X-58476Y212613D01*
Y222770D01*
X-50858Y227848D02*
X-53398D01*
Y230387D01*
X-50858D01*
Y227848D01*
X-63554Y240544D02*
X-66094Y243083D01*
Y248162D01*
X-63554Y250701D01*
X-53398D01*
X-50858Y248162D01*
Y243083D01*
X-53398Y240544D01*
X-63554D01*
Y255779D02*
X-66094Y258319D01*
Y263397D01*
X-63554Y265936D01*
X-53398D01*
X-50858Y263397D01*
Y258319D01*
X-53398Y255779D01*
X-63554D01*
X-50858Y291328D02*
X-55937Y286249D01*
X-61015D01*
X-66094Y291328D01*
X-50858Y298945D02*
X-61015D01*
Y301485D01*
X-58476Y304024D01*
X-50858D01*
X-58476D01*
X-61015Y306563D01*
X-58476Y309102D01*
X-50858D01*
Y314180D02*
X-61015D01*
Y316720D01*
X-58476Y319259D01*
X-50858D01*
X-58476D01*
X-61015Y321798D01*
X-58476Y324337D01*
X-50858D01*
Y329416D02*
X-55937Y334494D01*
X-61015D01*
X-66094Y329416D01*
X357378Y-46446D02*
X359917Y-43906D01*
X364996D01*
X367535Y-46446D01*
Y-48985D01*
X364996Y-51524D01*
X367535Y-54063D01*
Y-56602D01*
X364996Y-59142D01*
X359917D01*
X357378Y-56602D01*
Y-54063D01*
X359917Y-51524D01*
X357378Y-48985D01*
Y-46446D01*
X359917Y-51524D02*
X364996D01*
X382770Y-43906D02*
X377692Y-46446D01*
X372613Y-51524D01*
Y-56602D01*
X375152Y-59142D01*
X380231D01*
X382770Y-56602D01*
Y-54063D01*
X380231Y-51524D01*
X372613D01*
X387848Y-59142D02*
Y-56602D01*
X390387D01*
Y-59142D01*
X387848D01*
X400544Y-46446D02*
X403083Y-43906D01*
X408162D01*
X410701Y-46446D01*
Y-56602D01*
X408162Y-59142D01*
X403083D01*
X400544Y-56602D01*
Y-46446D01*
X415779D02*
X418318Y-43906D01*
X423397D01*
X425936Y-46446D01*
Y-56602D01*
X423397Y-59142D01*
X418318D01*
X415779Y-56602D01*
Y-46446D01*
X451328Y-59142D02*
X446249Y-54063D01*
Y-48985D01*
X451328Y-43906D01*
X458945Y-59142D02*
Y-48985D01*
X461484D01*
X464024Y-51524D01*
Y-59142D01*
Y-51524D01*
X466563Y-48985D01*
X469102Y-51524D01*
Y-59142D01*
X474180D02*
Y-48985D01*
X476720D01*
X479259Y-51524D01*
Y-59142D01*
Y-51524D01*
X481798Y-48985D01*
X484337Y-51524D01*
Y-59142D01*
X489416D02*
X494494Y-54063D01*
Y-48985D01*
X489416Y-43906D01*
M02*
